<?xml version="1.0" standalone="no"?>
<!DOCTYPE svg PUBLIC "-//W3C//DTD SVG 20010904//EN"
 "http://www.w3.org/TR/2001/REC-SVG-20010904/DTD/svg10.dtd">
<svg version="1.0" xmlns="http://www.w3.org/2000/svg"
 width="512.000000pt" height="512.000000pt" viewBox="0 0 512.000000 512.000000"
 preserveAspectRatio="xMidYMid meet">
<metadata>
Created by potrace 1.11, written by Peter Selinger 2001-2013
</metadata>
<g transform="translate(0.000000,512.000000) scale(0.100000,-0.100000)"
fill="#000000" stroke="none">
<path d="M1297 5114 c-1 -1 -36 -4 -78 -7 -41 -3 -82 -8 -90 -11 -7 -3 -32 -8
-54 -11 -55 -8 -228 -67 -305 -105 -329 -160 -579 -446 -695 -793 -75 -226
-70 -71 -70 -2189 l0 -1897 21 -28 c64 -86 184 -86 248 0 21 28 21 30 26 1095
5 1060 5 1067 24 1027 11 -22 37 -68 58 -103 21 -34 38 -64 38 -67 0 -7 108
-163 164 -235 67 -87 158 -190 244 -275 l71 -70 0 -662 c0 -734 -4 -695 67
-749 67 -51 167 -28 210 49 21 37 21 47 20 578 -1 356 2 538 9 535 6 -2 53
-31 105 -66 95 -62 391 -213 443 -225 15 -4 31 -12 35 -19 4 -6 7 -175 8 -376
0 -201 4 -379 8 -397 8 -35 75 -102 104 -104 86 -7 137 17 167 76 20 38 21 58
20 363 0 178 2 327 5 331 3 4 66 -4 140 -19 74 -15 160 -30 190 -33 30 -4 69
-10 85 -15 17 -5 61 -10 100 -11 38 -1 72 -4 75 -6 3 -2 5 -130 5 -286 -1
-317 3 -338 71 -379 81 -51 194 -9 220 82 5 18 9 158 9 310 l-1 278 298 0
c231 0 298 -3 299 -12 0 -7 1 -136 1 -285 0 -259 1 -275 21 -315 56 -109 205
-109 261 1 15 28 17 70 18 322 l0 289 303 0 304 0 3 -298 c3 -293 3 -297 26
-330 49 -69 144 -85 209 -37 61 48 64 64 63 381 l0 284 97 0 c113 0 162 20
197 79 38 66 21 207 -41 338 -52 111 -163 238 -263 302 -14 8 -27 18 -30 22
-8 10 -171 87 -215 101 l-40 13 -3 298 -2 297 251 0 c278 0 299 4 342 64 30
42 31 132 1 173 -46 63 -44 63 -544 63 -494 1 -593 8 -767 55 -285 78 -557
253 -737 475 -211 257 -314 522 -341 870 -21 265 -100 485 -253 700 -70 98
-212 240 -310 310 -97 69 -266 156 -357 184 -33 10 -71 22 -85 27 -32 10 -131
28 -195 35 -52 5 -204 12 -208 8z m199 -308 c8 -3 11 -449 11 -1724 l1 -1720
-52 31 c-139 84 -335 246 -465 382 l-81 86 0 1428 0 1428 52 22 c80 33 177 57
283 70 61 7 230 5 251 -3z m420 -154 c50 -33 123 -89 162 -127 70 -66 172
-192 172 -213 0 -6 4 -12 8 -14 15 -5 94 -181 107 -238 2 -8 12 -44 22 -80 17
-61 18 -147 19 -1495 1 -786 -1 -1435 -5 -1441 -8 -15 -192 22 -336 67 -116
36 -248 87 -255 99 -4 6 -5 3407 -1 3483 1 9 5 17 9 17 4 0 48 -26 98 -58z
m-1308 -1794 l-3 -553 -52 105 c-116 236 -188 472 -228 750 -26 181 -26 738 0
812 2 7 6 24 9 38 25 134 127 326 246 463 l25 29 3 -545 c1 -300 1 -794 0
-1099z m2177 -38 c122 -153 310 -320 470 -416 l49 -30 1 -407 c0 -265 -3 -407
-10 -407 -5 1 -37 7 -70 15 -86 21 -177 29 -357 29 l-158 1 0 654 c0 360 2
652 4 650 2 -2 34 -42 71 -89z m951 -616 c104 -28 264 -50 379 -53 44 -1 81
-4 83 -6 3 -3 5 -388 3 -511 l-1 -30 -243 -1 c-263 0 -282 -4 -325 -58 -11
-14 -22 -25 -24 -25 -4 0 -4 693 0 714 1 4 10 5 20 1 9 -3 58 -17 108 -31z"/>
</g>
</svg>
