<?xml version="1.0" encoding="utf-8"?>
<!-- Generator: Adobe Illustrator 23.0.3, SVG Export Plug-In . SVG Version: 6.00 Build 0)  -->
<svg version="1.1" xmlns="http://www.w3.org/2000/svg" xmlns:xlink="http://www.w3.org/1999/xlink" x="0px" y="0px"
	 viewBox="0 0 750 500" enable-background="new 0 0 750 500" xml:space="preserve">
<g id="BACKGROUND">
	<rect fill="#191919" width="750" height="500"/>
</g>
<g id="OBJECT">
	<g>
		<g>
			<path fill="#3C3C3C" d="M565,236.8h59.8l0,0c0,3.9-3.2,7-7,7H558l0,0C558,240,561.2,236.8,565,236.8z"/>
			<g>
				<path fill="#3C3C3C" d="M638.7,263.1h-20.5l0,0c0-3.9,3.2-7,7-7h20.5l0,0C645.7,260,642.6,263.1,638.7,263.1z"/>
			</g>
			<g>
				<path fill="#3C3C3C" d="M676.5,263.1H656l0,0c0-3.9,3.2-7,7-7h20.5l0,0C683.5,260,680.4,263.1,676.5,263.1z"/>
			</g>
			<path fill="#3C3C3C" d="M35,245.1H-1v-9h45v0C44,241,40,245.1,35,245.1z"/>
			<path fill="#3C3C3C" d="M158.8,328.2H99l0,0c0-3.9,3.2-7,7-7h59.8l0,0C165.8,325.1,162.6,328.2,158.8,328.2z"/>
			<g>
				<path fill="#3C3C3C" d="M87.6,249.5h-66l0,0c0-4.9,4-9,9-9h66l0,0C96.5,245.5,92.5,249.5,87.6,249.5z"/>
			</g>
			<g>
				<path fill="#3C3C3C" d="M750,309.1h-93.3l0,0c0-2.9,2.3-5.2,5.2-5.2H750V309.1z"/>
			</g>
			<g>
				<path fill="#3C3C3C" d="M630,322.2h22.4l0,0c0,2.9-2.3,5.2-5.2,5.2h-22.4l0,0C624.8,324.5,627.2,322.2,630,322.2z"/>
			</g>
			<g>
				<path fill="#3C3C3C" d="M113.3,318.8H92.8l0,0c0-3.9,3.2-7,7-7h20.5l0,0C120.3,315.7,117.2,318.8,113.3,318.8z"/>
			</g>
			<g>
				<path fill="#3C3C3C" d="M302.6,223H182.1l0,0c0-2.5,2-4.5,4.5-4.5h120.5l0,0C307.1,221,305.1,223,302.6,223z"/>
			</g>
			<g>
				<path fill="#141414" d="M560.4,228.1H439.9l0,0c0-2.5,2-4.5,4.5-4.5h120.5l0,0C564.9,226.1,562.9,228.1,560.4,228.1z"/>
			</g>
			<g>
				<path fill="#3C3C3C" d="M167.4,223h-50.5l0,0c0-2.5,2-4.5,4.5-4.5h50.5l0,0C171.9,221,169.9,223,167.4,223z"/>
			</g>
		</g>
	</g>
	<g>
		<g>
			<path fill="#00D5DA" d="M284.6,248.3H255V247c0-2.7,2.2-4.9,4.9-4.9h29.7v1.3C289.5,246.1,287.3,248.3,284.6,248.3z"/>
			<g>
				<polygon fill="#FF2250" points="261.3,296.1 261.3,276.9 209.3,312.1 200.2,312.1 200.2,318.3 238.8,318.3 238.8,341.7 
					261.3,341.7 261.3,318.3 275.5,318.3 275.5,296.1 				"/>
				<path fill="#FF2250" d="M220.2,214.3L181,268.1h19.2c0,2.4-1,4.7-2.6,6.3c-1.6,1.6-3.8,2.6-6.2,2.6h-16.8l-8.8,12l2.1,23.2h41.3
					l32.7-22.1l0,0l13-8.8v-66.9H220.2z M191.5,290l40.9-56v56H191.5z"/>
				<g>
					<g>
						<g>
							<polygon fill="#FFFFFF" points="270.8,296.1 270.8,280.9 215.6,318.3 248.3,318.3 248.3,341.7 270.8,341.7 270.8,318.3 
								284.9,318.3 284.9,296.1 							"/>
						</g>
						<path fill="#FFFFFF" d="M260,256h4.4v-41.7h-34.7l-39.2,53.8h9.7c0,2.4-1,4.7-2.6,6.3c-1.6,1.6-3.8,2.6-6.2,2.6H184l-8.8,12
							l2.1,23.2h32L242,290H201l31.5-43l9.5-13v56l13-8.8l9.5-6.4V261H255C255,258.3,257.2,256,260,256z"/>
					</g>
				</g>
				<rect x="284.9" y="296.1" fill="#00D5DA" width="9.4" height="22.1"/>
				<rect x="264.4" y="214.3" fill="#00D5DA" width="9.4" height="41.7"/>
				<polygon fill="#00D5DA" points="264.4,261 273.8,261 273.8,268.4 264.4,274.8 				"/>
				<polygon fill="#00D5DA" points="270.8,280.9 280.2,274 280.2,296.1 270.8,296.1 				"/>
			</g>
			<path fill="#FF2250" d="M159,276.9h-14.1v-1.8c0-3.9,3.2-7,7-7h14.1v1.8C166.1,273.8,162.9,276.9,159,276.9z"/>
			<path fill="#FFFFFF" d="M274.7,245.1h-27.5v-1.8c0-3.9,3.2-7,7-7h27.5v1.8C281.7,242,278.6,245.1,274.7,245.1z"/>
			<path fill="#FF2250" d="M191.3,256h-12.7v-1c0-2.2,1.8-4,4-4h12.7v1C195.3,254.2,193.5,256,191.3,256z"/>
			<path fill="#FFFFFF" d="M302.2,311.8H277v-1c0-2.2,1.8-4,4-4h25.2v1C306.2,310,304.4,311.8,302.2,311.8z"/>
			<path fill="#FFFFFF" d="M212.1,286h-12.7v-1c0-2.2,1.8-4,4-4h12.7v1C216.1,284.2,214.3,286,212.1,286z"/>
			<path fill="#FF2250" d="M222,277.3h-6.4v-1c0-2.2,1.8-4,4-4h6.4v1C226,275.5,224.2,277.3,222,277.3z"/>
			<path fill="#00D5DA" d="M281.3,328.3H275v-1c0-2.2,1.8-4,4-4h6.4v1C285.3,326.5,283.6,328.3,281.3,328.3z"/>
			<path fill="#FF2250" d="M242.3,333.3h-22.4v-1c0-2.2,1.8-4,4-4h18.4V333.3z"/>
			<path fill="#00D5DA" d="M286.7,291.5h-13.6v-4.6h17.3v0.9C290.4,289.9,288.7,291.5,286.7,291.5z"/>
			<path fill="#FFFFFF" d="M242,296.5h-19V290h24.1v1.3C247.2,294.2,244.9,296.5,242,296.5z"/>
			<path fill="#FF2250" d="M236.1,223.9h-15.3v-4.4h18.8v0.9C239.6,222.4,238.1,223.9,236.1,223.9z"/>
			<path fill="#FFFFFF" d="M186.9,300.3h-23.5c-1.8,0-3.3-1.5-3.3-3.3v-0.9h26.8V300.3z"/>
			<rect x="301.6" y="316" fill="#00D5DA" width="4.6" height="4.6"/>
			<rect x="210.4" y="207.7" fill="#FF2250" width="4.6" height="4.6"/>
		</g>
		<g>
			<path fill="#FF2250" d="M324.8,286.1h-30.5v-1.1c0-2.3,1.9-4.1,4.1-4.1h30.5v1.1C328.9,284.3,327.1,286.1,324.8,286.1z"/>
			<path fill="#00D5DA" d="M423.7,218.1h-50.4v-1c0-2.2,1.8-4,4-4h50.4v1C427.7,216.3,425.9,218.1,423.7,218.1z"/>
			<path fill="#FF2250" d="M339.5,330.8h-12.7v-1c0-2.2,1.8-4,4-4h12.7v1C343.5,329,341.7,330.8,339.5,330.8z"/>
			<path fill="#FF2250" d="M408.7,307.1h-27.5v-1.8c0-3.9,3.2-7,7-7h27.5v1.8C415.8,303.9,412.6,307.1,408.7,307.1z"/>
			<g>
				<g>
					<path fill="#FF2250" d="M424.1,269.4v17.5c0,33.9-23.5,51.9-48.3,53.9c-21.4,1.8-43.8-8.3-53.2-30.2l19.4-13.1
						c0.5,1.8,1.1,3.5,1.8,5.1c6,13.2,19.5,18.8,32,16.9c12.8-1.9,24.5-11.8,25.6-29.8h12.9c2.4,0,4.4-2,4.4-4.4v-1.1h-17.2v-14.7
						c0-4.1-0.6-7.9-1.6-11.2l19.3-13.1c0.7,1.6,1.4,3.3,1.9,5.1C423,255.9,424.1,262.3,424.1,269.4z"/>
					<path fill="#FF2250" d="M413,242.6l-11.9,8.1c-0.2-0.5-0.5-0.9-0.8-1.4c-0.4-0.7-0.8-1.3-1.2-2c-0.3-0.5-0.6-0.9-0.9-1.3
						c0,0,0,0,0,0c-0.4-0.5-0.7-0.9-1.1-1.4c-0.3-0.4-0.7-0.8-1.1-1.2c-0.2-0.2-0.3-0.3-0.5-0.5c-0.1-0.1-0.3-0.3-0.4-0.4
						c-0.3-0.3-0.6-0.6-0.9-0.9c-0.3-0.3-0.6-0.6-1-0.8c-0.3-0.3-0.7-0.5-1-0.8c0,0-0.1-0.1-0.1-0.1c-0.2-0.2-0.4-0.3-0.6-0.4
						c-0.4-0.3-0.8-0.6-1.3-0.8c-0.4-0.2-0.7-0.4-1.1-0.6c-0.1-0.1-0.3-0.1-0.4-0.2c-0.4-0.2-0.9-0.4-1.3-0.6c0,0,0,0-0.1,0
						c-0.5-0.2-1-0.5-1.5-0.7c-0.5-0.2-1.1-0.4-1.6-0.6c-0.5-0.2-1.1-0.4-1.6-0.5c-1.1-0.3-2.2-0.6-3.3-0.7
						c-0.4-0.1-0.8-0.1-1.2-0.2c-0.1,0-0.1,0-0.1,0c-0.4-0.1-0.8-0.1-1.1-0.1c-0.5-0.1-1-0.1-1.5-0.1c-0.4,0-0.8,0-1.2,0
						c-1.6,0-3.2,0.1-4.7,0.4c-16.2-2.4-34.3,7.8-34.9,30.8H334c-1.3,0-2.5,0.5-3.4,1.3c-0.1,0.1-0.1,0.1-0.2,0.2
						c-0.9,0.9-1.5,2.2-1.5,3.6h5.5v13.8c0,3.7,2.8,11.9,3.8,15.3c0,0.1,0.1,0.2,0.1,0.3l-11.9,8l-7.5,5.1
						c-2.9-6.8-7.1-19.6-7.1-28.6V267c0-38.2,29.7-56.1,57.7-53.9C387.5,214.5,404.8,224.4,413,242.6z"/>
				</g>
				<g>
					<g>
						<g>
							<path fill="#00D5DA" d="M437.1,287.9c-1.1,1.1-1.8,2.7-1.8,4.4h7.4c-2.7,34.4-30.9,50.6-57.6,48.5
								c-18.3-1.5-35.8-11.6-43.8-30.2l11.8-8c6,13.2,19.5,18.8,32,16.9c0,0,0,0,0,0c16.6,2.5,35.1-8.4,35.1-32.6v-17.5
								c0-4.1-2.5-13.2-3.5-16.5l11.9-7.8l7.5-4.9c3.1,6.9,6.8,19.9,6.8,29.3v16.7h-1.4C439.8,286.1,438.2,286.8,437.1,287.9z"/>
						</g>
						<path fill="#00D5DA" d="M353.2,284.4c0,3.8,0.5,7.4,1.3,10.5l-19.4,13.1c-0.7-1.6-1.3-3.3-1.9-5.1c-1.7-5.5-2.7-11.7-2.7-18.6
							v-13.8h22.6V284.4z"/>
						<path fill="#00D5DA" d="M431.8,243l-19.4,13.1c-0.6-1.9-1.3-3.6-2.1-5.2c-6.1-12.1-19-17.5-31-16
							c-13.3,1.7-25.5,11.8-26.1,30.7H334c-1.3,0-2.5,0.5-3.4,1.3c0.1-34.4,24.2-52.2,49.4-53.7C400.8,212,422.4,221.9,431.8,243z"
							/>
					</g>
				</g>
				<g>
					<g>
						<g>
							<path fill="#FFFFFF" d="M433.5,269.4v17.5c0,33.9-23.5,51.9-48.4,53.9c-3.1,0.3-6.2,0.3-9.4,0c-18.3-1.4-35.8-11.5-43.8-30.2
								l11.8-8l7.6-5.1c0.5,1.8,1.1,3.5,1.8,5.1c4.5,9.9,13.2,15.5,22.6,16.9c3.1,0.5,6.3,0.5,9.4,0c0,0,0,0,0,0
								c12.8-1.9,24.5-11.9,25.6-29.8h3.4c2.4,0,4.4-2,4.4-4.4v-1.1h-7.7v-14.7c0-4.1-0.6-7.9-1.6-11.2l11.9-8l7.5-5.1
								c0.7,1.6,1.4,3.3,1.9,5C432.4,255.9,433.5,262.3,433.5,269.4z"/>
						</g>
						<path fill="#FFFFFF" d="M422.4,242.6l-12.1,8.2l-7.2,4.9c-0.5-1.8-1.2-3.5-2-5c-0.2-0.5-0.5-0.9-0.8-1.4
							c-0.4-0.7-0.8-1.3-1.2-2c-0.3-0.5-0.6-0.9-0.9-1.3c0,0,0,0,0,0c-0.4-0.5-0.7-0.9-1.1-1.4c-0.3-0.4-0.7-0.8-1.1-1.2
							c-0.2-0.2-0.3-0.3-0.5-0.5c-0.1-0.1-0.3-0.3-0.4-0.4c-0.3-0.3-0.6-0.6-0.9-0.9c-0.3-0.3-0.6-0.6-1-0.8c-0.3-0.3-0.7-0.5-1-0.8
							c0,0-0.1-0.1-0.1-0.1c-0.2-0.2-0.4-0.3-0.6-0.4c-0.4-0.3-0.8-0.6-1.3-0.8c-0.4-0.2-0.7-0.4-1.1-0.6c-0.1-0.1-0.3-0.1-0.4-0.2
							c-0.4-0.2-0.9-0.4-1.3-0.6c0,0,0,0-0.1,0c-0.5-0.2-1-0.5-1.5-0.7c-0.5-0.2-1.1-0.4-1.6-0.6c-0.5-0.2-1.1-0.4-1.6-0.5
							c-1.1-0.3-2.2-0.5-3.3-0.7c-0.4-0.1-0.8-0.1-1.2-0.2c-0.1,0-0.1,0-0.1,0c-0.4,0-0.7-0.1-1.1-0.1c-0.5-0.1-1-0.1-1.5-0.1
							c-0.4,0-0.8,0-1.2,0c-1.6,0-3.2,0.1-4.7,0.4c-13.1,2-25,12.2-25.5,30.8H334c-1.3,0-2.5,0.5-3.4,1.3c-0.1,0.1-0.1,0.1-0.2,0.2
							c-0.9,0.9-1.5,2.2-1.5,3.6h14.9v13.8c0,3.8,0.5,7.3,1.3,10.5l-7,4.7l-4.9,3.3l-7.5,5.1c-0.7-1.6-1.3-3.3-1.9-5.1
							c-1.7-5.6-2.7-11.7-2.7-18.6V267c0-33.9,23.4-51.9,48.2-53.9c3.5-0.3,7.1-0.3,10.6,0.1C397.6,214.9,414.4,224.8,422.4,242.6z"
							/>
					</g>
				</g>
			</g>
			<path fill="#FFFFFF" d="M402.4,249.6h-27.5v-1.8c0-3.9,3.2-7,7-7h27.5v1.8C409.4,246.5,406.2,249.6,402.4,249.6z"/>
			<path fill="#FFFFFF" d="M325.5,247.7h-16.4v-1c0-2.2,1.8-4,4-4h16.4v1C329.5,245.9,327.7,247.7,325.5,247.7z"/>
			<path fill="#00D5DA" d="M446.1,314.4h-13.6v-4.6h17.3v0.9C449.8,312.8,448.1,314.4,446.1,314.4z"/>
			<path fill="#FFFFFF" d="M436,323.8h-19v-6.4h24.1v1.3C441.1,321.5,438.8,323.8,436,323.8z"/>
			<path fill="#FF2250" d="M330.5,230.2h-27.9v-0.9c0-1.9,1.6-3.5,3.5-3.5H334v0.9C334,228.7,332.5,230.2,330.5,230.2z"/>
			<path fill="#FF2250" d="M332.6,339.6h-23.5v-0.9c0-1.8,1.5-3.3,3.3-3.3h23.5v0.9C335.9,338.1,334.4,339.6,332.6,339.6z"/>
			<rect x="311.8" y="321" fill="#FFFFFF" width="4.6" height="4.6"/>
			<rect x="450.3" y="274.6" fill="#00D5DA" width="4.6" height="4.6"/>
			<rect x="362.4" y="258.2" fill="#00D5DA" width="4.6" height="4.6"/>
			<path fill="#FFFFFF" d="M380.8,311.6h-39.3v-1.8c0-3.9,3.2-7,7-7h39.3v1.8C387.8,308.5,384.7,311.6,380.8,311.6z"/>
		</g>
		<g>
			<path fill="#FF2250" d="M478.8,291.3h-27.5v-1.8c0-3.9,3.2-7,7-7h27.5v1.8C485.8,288.2,482.7,291.3,478.8,291.3z"/>
			<path fill="#00D5DA" d="M586.2,290h-24.6v-1.3c0-2.7,2.2-4.9,4.9-4.9h24.6v1.3C591.2,287.8,589,290,586.2,290z"/>
			<path fill="#FF2250" d="M486.9,333.9h-18.3v-1.3c0-2.7,2.2-4.9,4.9-4.9h18.3v1.3C491.8,331.7,489.6,333.9,486.9,333.9z"/>
			<path fill="#FF2250" d="M574.3,296.1v22.1h-14.2v23.5h-22.5v-17h11.5c1.8,0,3.4-0.7,4.6-1.9c1.2-1.2,1.9-2.8,1.9-4.6h-56.5v-6.1
				h9.1l52-35.2v19.2H574.3z"/>
			<path fill="#FF2250" d="M519.1,214.3l-14.9,20.4l-3.7,5l-8.2,11.2l-3.7,5l-19.3,26.5l-4.7,6.5l0.2,2.4l0.4,4.8l0.4,4.2l1.1,11.8
				h41.3l6.8-4.6l25.9-17.5l0,0l11.8-8l1.2-0.8v-66.9H519.1z M490.4,290l41-56v56H490.4z"/>
			<g>
				<g>
					<g>
						<path fill="#FFFFFF" d="M583.8,296.1v22.1h-14.2v23.5h-22.5l0-17h2c1.8,0,3.4-0.7,4.6-1.9c1.2-1.2,1.9-2.8,1.9-4.6h-41.1
							l45.7-30.9l9.5-6.4v15.2H583.8z"/>
					</g>
					<path fill="#FFFFFF" d="M528.6,214.3l-3.8,5.2l-3.2,4.4l-7.9,10.8l-3.7,5l-31.1,42.7l-4.7,6.5l0.2,2.4l0.4,4.8l0.4,4.2
						l1.1,11.8h32l6.8-4.6l25.9-17.5h-41l3-4l3.7-5l24.8-34l9.5-12.9v56l11.8-8l1.2-0.8l6.3-4.3l3.2-2.1V261h-9.5c0-2.8,2.3-5,5-5
						h4.4v-41.7H528.6z"/>
				</g>
			</g>
			<rect x="583.8" y="296.1" fill="#00D5DA" width="9.4" height="22.1"/>
			<rect x="563.3" y="214.3" fill="#00D5DA" width="9.4" height="41.7"/>
			<polygon fill="#00D5DA" points="563.3,261 572.7,261 572.7,268.4 563.3,274.8 			"/>
			<polygon fill="#00D5DA" points="569.6,280.9 579,274 579,296.1 569.6,296.1 			"/>
			<path fill="#FFFFFF" d="M584.1,223.2h-39.3v-1.8c0-3.9,3.2-7,7-7h39.3v1.8C591.2,220,588,223.2,584.1,223.2z"/>
			<path fill="#FF2250" d="M490.1,256h-12.7v-1c0-2.2,1.8-4,4-4h12.7v1C494.1,254.2,492.3,256,490.1,256z"/>
			<path fill="#FFFFFF" d="M601.1,311.8h-25.2v-1c0-2.2,1.8-4,4-4h25.2v1C605.1,310,603.3,311.8,601.1,311.8z"/>
			<path fill="#FFFFFF" d="M511,286h-12.7v-1c0-2.2,1.8-4,4-4H515v1C515,284.2,513.2,286,511,286z"/>
			<path fill="#FF2250" d="M520.9,277.3h-6.4v-1c0-2.2,1.8-4,4-4h6.4v1C524.9,275.5,523.1,277.3,520.9,277.3z"/>
			<path fill="#00D5DA" d="M580.2,328.3h-6.4v-1c0-2.2,1.8-4,4-4h6.4v1C584.2,326.5,582.4,328.3,580.2,328.3z"/>
			<path fill="#FF2250" d="M559.3,337.6h-18.4v-1c0-2.2,1.8-4,4-4h18.4v1C563.3,335.8,561.5,337.6,559.3,337.6z"/>
			<path fill="#FFFFFF" d="M516,312.1h-13.6v-4.6h17.3v0.9C519.7,310.5,518,312.1,516,312.1z"/>
			<path fill="#FF2250" d="M535,223.9h-15.3v-4.4h18.8v0.9C538.5,222.4,536.9,223.9,535,223.9z"/>
			<path fill="#FFFFFF" d="M485.8,300.3h-23.5c-1.8,0-3.3-1.5-3.3-3.3v-0.9h26.8V300.3z"/>
			<rect x="600.5" y="316" fill="#00D5DA" width="4.6" height="4.6"/>
			<rect x="529.3" y="321" fill="#FFFFFF" width="4.6" height="4.6"/>
			<rect x="459" y="272.5" fill="#FF2250" width="4.6" height="4.6"/>
			<path fill="#FFFFFF" d="M515.4,239.8h-41.6v-1c0-2.2,1.8-4,4-4h41.6v1C519.4,238,517.6,239.8,515.4,239.8z"/>
		</g>
	</g>
	<path fill="#141414" d="M131.5,302.4H23.7l0,0c0-2.3,1.9-4.2,4.2-4.2h107.8l0,0C135.7,300.6,133.8,302.4,131.5,302.4z"/>
	<path fill="#141414" d="M689.8,293.6H632l0,0c0-2.3,1.9-4.2,4.2-4.2H694l0,0C694,291.8,692.1,293.6,689.8,293.6z"/>
</g>
<g id="DESIGNED_BY_FREEPIK">
</g>
</svg>
