<?xml version="1.0" encoding="utf-8"?>
<!-- Generator: Adobe Illustrator 23.0.3, SVG Export Plug-In . SVG Version: 6.00 Build 0)  -->
<svg version="1.1" id="Layer_1" xmlns="http://www.w3.org/2000/svg" xmlns:xlink="http://www.w3.org/1999/xlink" x="0px" y="0px"
	 viewBox="0 0 512 512" style="enable-background:new 0 0 512 512;" xml:space="preserve">
<style type="text/css">
	.st0{fill:#FFFFFF;}
</style>
<path class="st0" d="M482.2,372.3c-9.4-7-20.3-12.4-32.1-15.9v-59.5H497h0c8.3,0,15-6.7,15-15s-6.7-15-15-15h0h-80.2
	c-75.8,0-138.7-57.8-145.9-132.6v-0.1c0-0.9-0.1-1.8-0.2-2.6c-0.1-1.1-0.2-2.2-0.2-3.3c0-0.5-0.1-1-0.1-1.6c0-0.6-0.1-1.2-0.1-1.7
	c0-0.6-0.1-1.1-0.2-1.7c-0.1-0.6-0.1-1.2-0.2-1.7c-0.1-0.5-0.1-1.1-0.2-1.6c-0.1-0.6-0.1-1.2-0.2-1.8c-0.1-0.5-0.1-1-0.2-1.6
	c-0.1-0.6-0.2-1.2-0.3-1.8c-0.1-0.5-0.2-1-0.2-1.5c-0.1-0.6-0.2-1.3-0.3-1.9c-0.1-0.5-0.2-0.9-0.3-1.4c-0.1-0.7-0.3-1.3-0.4-2
	c-0.1-0.4-0.2-0.8-0.3-1.3c-0.2-0.7-0.3-1.4-0.5-2.2c-0.1-0.4-0.2-0.7-0.3-1.1c-0.2-0.8-0.4-1.7-0.6-2.5c-0.1-0.2-0.1-0.5-0.2-0.7
	c-1.2-4.4-2.6-8.8-4.3-13.1c0,0,0-0.1,0-0.1c-0.4-1-0.8-2.1-1.2-3.1c0-0.1-0.1-0.2-0.1-0.3c-0.4-1-0.8-1.9-1.2-2.9
	c0-0.1-0.1-0.2-0.1-0.3c-0.4-0.9-0.9-1.9-1.3-2.8c-0.1-0.1-0.1-0.2-0.2-0.3c-0.5-0.9-0.9-1.9-1.4-2.8c0,0,0-0.1-0.1-0.1v0
	c-6.9-13.5-16.1-26-27.5-36.7c-25.3-24-58.3-37.3-92.9-37.3C61.1,0.5,0.5,61.2,0.5,135.7v1.7c-0.3,1.2-0.5,2.5-0.5,3.8v355.3
	c0,8.3,6.7,15,15,15c8.3,0,15-6.7,15-15V287.7c15.2,30.2,35.6,57.3,60.2,80c-0.2,1-0.3,2-0.3,3.1v125.8c0,8.3,6.7,15,15,15
	s15-6.7,15-15V391.6c18.5,12.9,38.5,23.6,59.9,31.8v73.1c0,8.3,6.7,15,15,15s15-6.7,15-15v-63.6c12.8,3.3,25.9,5.7,39.4,7.1
	c2,1,4.2,1.5,6.6,1.5h0.5h13.5v54.9c0,8.3,6.7,15,15,15s15-6.7,15-15v-54.9h59.9v54.9c0,8.3,6.7,15,15,15c8.3,0,15-6.7,15-15v-54.9
	h60.9v54.9c0,8.3,6.7,15,15,15c8.3,0,15-6.7,15-15v-54.9h16c0.6,0,1.2,0,1.8-0.1c7.6-0.7,13.6-7.1,13.6-14.9
	C511.5,405.8,501.1,386.6,482.2,372.3z M275.2,225.5c2.4,3.2,4.9,6.4,7.5,9.4c0.1,0.1,0.2,0.3,0.3,0.4c2.6,3,5.2,5.9,8,8.7
	c0.2,0.2,0.3,0.3,0.5,0.5c0.6,0.6,1.3,1.3,1.9,1.9c0.1,0.1,0.2,0.2,0.3,0.3c2,2,4.1,3.9,6.2,5.7c0.2,0.2,0.5,0.4,0.7,0.6
	c0.6,0.5,1.2,1.1,1.9,1.6c0.2,0.2,0.5,0.4,0.7,0.6c2,1.7,4.1,3.4,6.2,5c0.3,0.2,0.6,0.5,0.9,0.7c0.6,0.5,1.2,0.9,1.8,1.4
	c0.3,0.3,0.7,0.5,1,0.7c2,1.5,4.1,2.9,6.1,4.3c0.4,0.3,0.8,0.5,1.2,0.8c0.6,0.4,1.2,0.8,1.7,1.1c0.4,0.3,0.9,0.6,1.3,0.8
	c0.6,0.4,1.1,0.7,1.7,1.1c0.5,0.3,1.1,0.6,1.6,0.9c0.9,0.5,1.8,1.1,2.7,1.6c0.3,0.2,0.7,0.4,1,0.6c-0.1,0.8-0.2,1.7-0.2,2.6v79.6
	c-10.3-3.1-21.4-4.8-33.1-4.8H271V219.7c1.3,1.9,2.6,3.8,4,5.6C275,225.4,275.1,225.5,275.2,225.5z M420.2,296.9v54.9
	c-1,0-2.1-0.1-3.1-0.1h-42.3c-7,0-12.8,4.8-14.5,11.2v-75.3c0.4,0.1,0.7,0.2,1.1,0.4c0.4,0.1,0.7,0.2,1.1,0.4
	c1.1,0.4,2.3,0.7,3.4,1.1c0.4,0.1,0.8,0.2,1.3,0.4c0.8,0.2,1.6,0.5,2.4,0.7c0.5,0.1,0.9,0.3,1.4,0.4c0.9,0.2,1.7,0.5,2.6,0.7
	c0.4,0.1,0.7,0.2,1.1,0.3c1.2,0.3,2.4,0.6,3.6,0.8c0.4,0.1,0.7,0.2,1.1,0.2c0.9,0.2,1.8,0.4,2.7,0.6c0.4,0.1,0.9,0.2,1.3,0.3
	c0.9,0.2,1.8,0.3,2.7,0.5c0.4,0.1,0.7,0.1,1.1,0.2c1.2,0.2,2.5,0.4,3.7,0.6c0.3,0,0.6,0.1,0.8,0.1c1,0.1,2,0.3,3,0.4
	c0.4,0.1,0.8,0.1,1.3,0.2c0.9,0.1,1.9,0.2,2.8,0.3c0.4,0,0.8,0.1,1.1,0.1c1.3,0.1,2.6,0.2,3.9,0.3c0.2,0,0.3,0,0.5,0
	c1.1,0.1,2.3,0.1,3.4,0.2c0.4,0,0.8,0,1.2,0.1c0.9,0,1.9,0.1,2.9,0.1c0.4,0,0.8,0,1.2,0c1.3,0,2.6,0,3.9,0c0,0,0,0,0,0h0H420.2z
	 M240.6,129.9c0.1,1.8,0.2,3.7,0.4,5.5v227.6c-0.3,1.2-0.5,2.4-0.5,3.7v42c-20.9-3.2-41-9.1-59.9-17.3V40.6
	C214.4,56.6,238.5,90.2,240.6,129.9z M150.7,31.5V376c-22.5-13.6-42.8-30.7-59.9-50.6v-285c13.6-6.4,28.8-10,44.8-10
	C140.7,30.4,145.8,30.8,150.7,31.5z M30.4,135.7c0-28.8,11.6-55,30.5-74v220.6c-19.4-35.4-30.5-76-30.5-119.2
	C30.4,162.8,30.4,136.3,30.4,135.7z"/>
</svg>
